<?xml version="1.0"?>
<svg xmlns="http://www.w3.org/2000/svg" width="249" height="74" viewBox="0 0 249 74" fill="none">
<path d="M24.8061 54.7025C25.6816 52.4775 26.0098 50.0457 25.8396 48.2097C25.8031 47.7477 25.7424 47.3221 25.6694 46.9452C25.6451 46.5561 25.6208 46.2035 25.5964 45.9117C25.5478 45.3402 25.4627 44.9876 25.4627 44.9876C25.4627 44.9876 23.9428 45.1579 22.0461 45.8509C21.0977 46.2035 20.0642 46.6899 19.0793 47.3829C18.0701 48.0881 17.1704 49 16.6111 50.1551C15.6627 52.0519 15.383 54.435 15.6384 56.4777C15.6384 56.4777 15.3952 56.0035 15.2128 55.2375C15.0061 54.4837 14.7265 53.4623 14.4468 52.4532C14.1672 51.4318 13.8875 50.4226 13.6808 49.6688C13.5106 48.9028 13.4619 48.3678 13.4619 48.3678C14.8967 48.0881 18.8969 46.8479 21.0977 43.8933C22.3257 42.0938 23.116 39.9417 23.3592 38.2395C23.5051 37.3884 23.4808 36.6345 23.5416 36.0995C23.6146 35.5646 23.6267 35.2241 23.6267 35.2241C23.6267 35.2241 22.2528 35.0782 20.4411 35.3335C19.5292 35.4673 18.5079 35.6983 17.4987 36.1239C16.526 36.5494 15.6141 37.1817 14.8359 38.1057C13.6443 39.5405 12.927 41.4616 12.6716 43.2489C12.5865 43.2489 12.5622 41.0725 12.4771 38.8961C12.4406 37.8018 12.3798 36.7196 12.392 35.905C12.4649 35.0904 12.5014 34.5432 12.5014 34.5432C13.851 34.604 17.523 34.373 20.0155 32.2209C20.818 31.5521 21.3165 30.7618 21.8758 29.9593C22.4352 29.169 22.8486 28.3544 23.1525 27.6005C23.7605 26.1171 23.9185 24.9134 23.9185 24.9134C23.9185 24.9134 22.7391 24.5243 21.1342 24.4271C19.5292 24.3298 17.4865 24.5243 15.7478 25.8375C14.4954 26.8102 13.4498 28.2328 12.9148 29.6797C12.9148 29.6797 12.9148 29.1082 13.1337 28.2936C13.3039 27.4668 13.5227 26.3603 13.7538 25.2539C13.9848 24.1474 14.2036 23.041 14.3739 22.2142C14.6292 21.4117 14.7994 20.8645 14.7994 20.8645C15.991 21.1928 19.1158 21.7035 21.6691 20.3417C22.4838 19.9161 23.1282 19.3204 23.7118 18.7124C24.3441 18.1166 24.8669 17.4844 25.2803 16.8886C26.095 15.697 26.4719 14.6757 26.4719 14.6757C26.4719 14.6757 25.5235 14.1285 24.1617 13.7395C22.7878 13.3625 20.9883 13.168 19.2374 13.9705C18.0458 14.5419 16.9394 15.4903 16.2098 16.5482C16.2098 16.5482 16.2706 16.2928 16.4165 15.9524C16.5746 15.5998 16.7813 15.1377 16.988 14.6757C17.4014 13.7516 17.8148 12.8276 17.8148 12.8276C18.4835 12.4871 19.4684 11.8792 20.4776 11.0767C21.5719 10.3228 22.654 9.33797 23.3957 8.04914C24.3076 6.26179 24.8791 4.43797 24.9763 2.80869C25.1223 1.22804 25.0007 0 25.0007 0C25.0007 0 23.8577 0.182382 22.3622 0.851117C20.9153 1.55633 18.8726 2.63846 17.827 4.64467C16.988 6.09157 16.5989 7.66006 16.4652 9.00969C16.4165 10.408 16.6476 11.6238 16.8178 12.3534C16.8178 12.3534 15.9667 14.1772 15.225 16.0375C14.6049 17.9464 13.9848 19.8554 13.9848 19.8554C14.0577 18.5422 13.9483 17.1075 13.4619 15.7578C12.7689 13.8367 11.5773 12.5236 10.3858 11.6603C9.21851 10.797 8.18501 10.4444 8.18501 10.4444C8.18501 10.4444 8.03911 10.7849 7.78377 11.3442C7.54059 11.9156 7.23662 12.706 7.09072 13.6787C6.72595 15.5876 6.55573 18.0072 7.2731 19.9405C8.62273 23.041 11.6503 23.9894 12.8418 24.3055C12.8418 24.3055 12.3798 26.5549 11.9299 28.8042C11.7232 31.0901 11.5287 33.376 11.5287 33.376C11.2855 31.8318 10.787 30.1417 9.85077 28.6827C8.75648 26.7251 7.01776 25.5335 5.52223 24.8526C4.03885 24.1717 2.79865 24.0137 2.79865 24.0137C2.79865 24.0137 2.34878 25.6916 2.28798 27.9288C2.37309 30.1782 2.79865 32.9626 4.08749 34.9445C6.31255 38.1301 10.0818 38.3124 11.3949 38.3368C11.3949 38.3368 11.4679 40.5497 11.553 42.7747C11.8813 44.9633 12.2096 47.1641 12.2096 47.1641C11.5773 45.4618 10.4222 43.6502 9.14556 42.1789C7.46764 40.2943 5.24258 39.3946 3.44307 38.9933C1.60709 38.6164 0.233142 38.738 0.233142 38.738C0.233142 38.738 0.208824 40.7199 0.6587 43.2246C1.19369 45.7172 2.49468 48.7082 4.39146 50.5564C7.71082 53.5353 11.9178 52.6598 13.3039 52.3316C13.3039 52.3316 13.851 54.4107 14.4833 56.4534C15.2979 58.4353 16.1004 60.4293 16.1004 60.4293C14.9818 58.6785 13.1701 56.9398 11.4071 55.578C9.10908 53.9608 6.47062 53.4988 4.41578 53.4866C2.36094 53.4745 0.901877 53.9365 0.901877 53.9365C0.901877 53.9365 1.40039 56.1251 2.53116 58.7757C3.66193 61.4142 5.94779 64.3445 8.45251 65.8886C12.9634 68.2718 17.219 66.1197 18.5686 65.4145C18.5686 65.4145 18.8605 65.9494 19.3103 66.7519C19.5292 67.1532 19.7845 67.6152 20.0642 68.1259C20.4046 68.6001 20.7572 69.0864 21.1098 69.5849C22.5446 71.5668 23.9793 73.5487 23.9793 73.5487L24.8183 72.8557C24.8183 72.8557 22.8729 70.1321 20.9153 67.4085C20.1007 65.9373 19.2982 64.4782 18.6902 63.3718C18.3863 62.8246 18.1309 62.3626 17.9485 62.0465C17.7783 61.7182 17.7175 61.5236 17.7175 61.5236C19.128 60.8792 23.1647 58.4353 24.8061 54.6904V54.7025Z" fill="white"/>
<path d="M245.027 49.2766C244.014 49.3498 242.866 49.5451 241.707 49.9601C240.572 50.3752 239.375 50.9733 238.179 51.8399C236.238 53.2558 234.969 55.2454 233.858 57.0275C233.858 57.0275 234.102 56.5393 234.298 55.7581C234.505 54.9769 234.798 53.9394 235.079 52.9018C235.372 51.8643 235.652 50.8268 235.872 50.0456C236.031 49.2522 236.104 48.7151 236.104 48.7151C237.544 48.947 241.682 49.5207 244.832 46.3227C246.894 44.3575 247.651 41.2815 248.066 38.7426C248.249 37.4732 248.396 36.338 248.371 35.5202C248.335 34.7145 248.274 34.2141 248.274 34.2141C248.274 34.2141 246.87 34.1775 245.124 34.7023C244.246 34.9587 243.281 35.3493 242.341 35.9352C241.365 36.5089 240.376 37.2779 239.534 38.2788C238.204 39.829 237.471 41.7453 236.91 43.4786C236.91 43.4786 236.934 43.3444 236.971 43.1002C236.971 42.8561 236.995 42.5021 237.007 42.0871C237.032 41.2571 237.081 40.1463 237.117 39.0233C237.154 37.9126 237.215 36.8018 237.215 35.9596C237.142 35.1296 237.105 34.5681 237.105 34.5681C238.448 34.4582 242.085 34.031 244.136 30.6865C244.746 29.649 245.247 28.4039 245.393 27.1711C245.54 25.9383 245.527 24.681 245.442 23.558C245.283 21.3121 244.856 19.6398 244.856 19.6398C244.856 19.6398 243.635 19.8718 242.158 20.653C240.681 21.4342 238.948 22.7646 237.898 24.8153C237.081 26.3411 236.885 28.0255 236.678 29.6001C236.678 29.6001 236.666 29.0142 236.458 28.1842C236.287 27.342 236.055 26.2068 235.823 25.0838C235.591 23.9486 235.36 22.8257 235.189 21.9834C234.932 21.1656 234.761 20.6163 234.761 20.6163C235.933 20.2257 238.875 19.0906 239.949 15.9169C240.279 14.916 240.437 13.7808 240.376 12.6945C240.266 11.6203 240.022 10.5584 239.754 9.61852C239.204 7.75096 238.521 6.40828 238.521 6.40828C238.521 6.40828 237.508 6.83549 236.385 7.77537C235.262 8.71526 234.017 10.1678 233.492 12.1208C233.101 13.4879 233.211 14.8916 233.321 16.2099C233.321 16.2099 233.248 15.9658 233.101 15.5996C232.943 15.2456 232.735 14.7696 232.528 14.2935C232.1 13.3536 231.685 12.4015 231.685 12.4015C231.856 11.657 232.088 10.4485 232.039 9.04482C231.905 7.67772 231.515 6.10312 230.672 4.66278C229.623 2.64875 227.56 1.5624 226.119 0.854437C224.618 0.170887 223.471 0 223.471 0C223.471 0 223.349 1.22062 223.495 2.81964C223.593 4.45528 224.166 6.27401 225.094 8.08053C225.839 9.37439 226.925 10.3631 228.024 11.1199C229.037 11.9255 230.025 12.5236 230.697 12.8776C230.697 12.8776 231.539 14.6719 232.271 16.5028C232.882 18.3826 233.492 20.2624 233.492 20.2624C232.784 19.1638 231.856 18.1019 230.721 17.4549C229.073 16.515 227.12 16.6493 225.729 16.9423C224.313 17.2474 223.336 17.7357 223.336 17.7357C223.336 17.7357 223.434 17.992 223.642 18.3948C223.849 18.7976 224.166 19.3469 224.484 19.9938C225.155 21.2633 226.254 22.7524 227.901 23.6923C230.294 25.2303 233.406 24.9373 234.639 24.681C234.639 24.681 235.091 26.9026 235.555 29.1119C235.75 31.37 235.945 33.6282 235.945 33.6282C235.445 32.1512 234.676 30.6377 233.516 29.5757C231.759 28.172 229.684 27.8546 228.048 27.8546C226.412 27.8546 225.204 28.172 225.204 28.172C225.204 28.172 225.424 29.3682 225.973 30.8818C226.376 32.4198 227.194 34.2751 228.78 35.7033C231.173 38.0102 234.688 38.4863 236.08 38.5107C236.08 38.5107 236.006 40.6956 235.933 42.8805C235.616 45.041 235.286 47.2015 235.286 47.2015C235.103 45.3828 234.822 43.442 233.577 41.9162C232.027 39.9632 229.854 39.1332 228.072 38.767C226.29 38.4008 224.899 38.4497 224.899 38.4497C224.899 38.4497 224.764 39.7557 225.057 41.489C225.241 43.2223 225.546 45.3706 226.937 47.2992C228.963 50.3996 232.735 51.9009 234.2 52.2793C234.2 52.2793 233.663 54.33 233.04 56.344C232.235 58.297 231.441 60.2622 231.441 60.2622C231.734 58.1871 232.015 55.9412 230.941 53.8905C229.757 51.4249 227.621 50.0334 225.802 49.2034C223.971 48.3855 222.458 48.117 222.458 48.117C222.458 48.117 221.981 49.4353 221.872 51.315C221.872 52.2793 221.664 53.2802 221.737 54.4032C221.786 55.514 222.018 56.698 222.506 57.9064C223.837 61.727 227.633 64.4245 229.012 65.1691C229.012 65.1691 228.719 65.694 228.292 66.4874C228.072 66.878 227.816 67.3418 227.548 67.8301C227.218 68.2939 226.864 68.7822 226.522 69.2704C225.118 71.2234 223.703 73.1642 223.703 73.1642L224.545 73.86C224.545 73.86 226.583 71.0891 228.548 68.2817C229.378 66.7803 230.208 65.279 230.831 64.156C231.148 63.5945 231.405 63.1185 231.588 62.7889C231.759 62.4593 231.832 62.2518 231.832 62.2518C233.26 62.8743 237.581 64.6931 241.865 61.9711C244.6 60.3476 246.223 57.1496 247.346 54.4764C247.627 53.8051 247.859 53.1582 248.066 52.5723C248.225 51.9742 248.323 51.4371 248.408 50.9855C248.579 50.0822 248.64 49.5329 248.64 49.5329C248.64 49.5329 247.139 49.1667 245.112 49.3254L245.027 49.2766Z" fill="white"/>
<path d="M84.0032 60.8732V59.256L88.8109 52.3753H91.2073V59.0795H92.5011V60.8732H91.2073V62.9609H89.149V60.8732H84.0032ZM89.2813 54.5806L86.2674 59.0795H89.2813V54.5806ZM94.9584 63.0639C94.5859 63.0639 94.2772 62.9511 94.0321 62.7257C93.7969 62.4905 93.6793 62.2013 93.6793 61.8583C93.6793 61.5152 93.7969 61.231 94.0321 61.0055C94.2772 60.7703 94.5859 60.6527 94.9584 60.6527C95.321 60.6527 95.62 60.7703 95.8552 61.0055C96.0904 61.231 96.2081 61.5152 96.2081 61.8583C96.2081 62.2013 96.0904 62.4905 95.8552 62.7257C95.62 62.9511 95.321 63.0639 94.9584 63.0639ZM99.4244 57.2859C98.4443 56.7762 97.9542 55.9872 97.9542 54.9188C97.9542 54.3895 98.0865 53.9092 98.3511 53.478C98.6256 53.0369 99.0324 52.689 99.5714 52.4341C100.12 52.1695 100.787 52.0372 101.571 52.0372C102.355 52.0372 103.017 52.1695 103.556 52.4341C104.105 52.689 104.511 53.0369 104.776 53.478C105.05 53.9092 105.188 54.3895 105.188 54.9188C105.188 55.4579 105.055 55.9333 104.791 56.3449C104.526 56.7468 104.173 57.0604 103.732 57.2859C104.271 57.5211 104.693 57.8642 104.997 58.315C105.3 58.7659 105.452 59.3001 105.452 59.9176C105.452 60.5841 105.281 61.1673 104.938 61.6671C104.605 62.1572 104.144 62.5346 103.556 62.7992C102.968 63.0639 102.306 63.1962 101.571 63.1962C100.836 63.1962 100.174 63.0639 99.5861 62.7992C99.0078 62.5346 98.5472 62.1572 98.2041 61.6671C97.8709 61.1673 97.7042 60.5841 97.7042 59.9176C97.7042 59.3001 97.8562 58.7659 98.16 58.315C98.4639 57.8544 98.8853 57.5113 99.4244 57.2859ZM103.188 55.2128C103.188 54.7326 103.041 54.3601 102.747 54.0955C102.463 53.8308 102.071 53.6985 101.571 53.6985C101.081 53.6985 100.689 53.8308 100.395 54.0955C100.111 54.3601 99.9684 54.7375 99.9684 55.2275C99.9684 55.6686 100.115 56.0215 100.409 56.2861C100.713 56.5507 101.1 56.6831 101.571 56.6831C102.041 56.6831 102.429 56.5507 102.732 56.2861C103.036 56.0117 103.188 55.6539 103.188 55.2128ZM101.571 58.1827C101.012 58.1827 100.556 58.3248 100.204 58.6091C99.8606 58.8933 99.6891 59.3001 99.6891 59.8294C99.6891 60.3194 99.8557 60.7213 100.189 61.0349C100.532 61.3388 100.993 61.4907 101.571 61.4907C102.149 61.4907 102.605 61.3339 102.938 61.0202C103.272 60.7066 103.438 60.3096 103.438 59.8294C103.438 59.3099 103.267 58.908 102.924 58.6238C102.58 58.3297 102.13 58.1827 101.571 58.1827ZM116.109 62.9609L113.845 58.9619H112.875V62.9609H110.817V52.6988H114.669C115.463 52.6988 116.139 52.8409 116.698 53.1251C117.256 53.3996 117.673 53.7769 117.947 54.2572C118.231 54.7277 118.374 55.2569 118.374 55.845C118.374 56.5213 118.178 57.1339 117.785 57.6828C117.393 58.2219 116.81 58.5944 116.036 58.8002L118.491 62.9609H116.109ZM112.875 57.4182H114.595C115.154 57.4182 115.57 57.2859 115.845 57.0212C116.119 56.7468 116.256 56.3694 116.256 55.8891C116.256 55.4187 116.119 55.056 115.845 54.8012C115.57 54.5365 115.154 54.4042 114.595 54.4042H112.875V57.4182ZM126.528 61.0055H122.441L121.764 62.9609H119.603L123.293 52.6841H125.69L129.38 62.9609H127.204L126.528 61.0055ZM125.969 59.3589L124.484 55.0658L122.999 59.3589H125.969ZM137.743 52.6988V54.3601H135.008V62.9609H132.95V54.3601H130.215V52.6988H137.743ZM141.303 52.6988V62.9609H139.245V52.6988H141.303ZM152.114 62.9609H150.056L145.395 55.9186V62.9609H143.337V52.6841H145.395L150.056 59.7411V52.6841H152.114V62.9609ZM161.293 55.7862C161.058 55.355 160.735 55.0266 160.323 54.8012C159.911 54.5757 159.431 54.463 158.882 54.463C158.275 54.463 157.735 54.6002 157.265 54.8747C156.794 55.1491 156.427 55.5412 156.162 56.0509C155.898 56.5606 155.765 57.1486 155.765 57.8151C155.765 58.5013 155.898 59.0991 156.162 59.6088C156.437 60.1185 156.814 60.5106 157.294 60.785C157.775 61.0594 158.333 61.1967 158.97 61.1967C159.755 61.1967 160.397 60.9908 160.896 60.5792C161.396 60.1577 161.725 59.5745 161.881 58.8296H158.353V57.2565H163.91V59.0501C163.773 59.7656 163.479 60.4272 163.028 61.0349C162.577 61.6426 161.994 62.1327 161.279 62.5052C160.573 62.8678 159.779 63.0492 158.897 63.0492C157.907 63.0492 157.01 62.8286 156.206 62.3875C155.412 61.9367 154.785 61.3143 154.325 60.5204C153.874 59.7264 153.648 58.8247 153.648 57.8151C153.648 56.8056 153.874 55.9038 154.325 55.1099C154.785 54.3062 155.412 53.6838 156.206 53.2427C157.01 52.7919 157.902 52.5664 158.882 52.5664C160.039 52.5664 161.043 52.8507 161.896 53.4192C162.749 53.9779 163.337 54.7669 163.66 55.7862H161.293Z" fill="white"/>
<path d="M187.662 11.2212L192.163 20.5079L202.387 21.9203L194.946 29.0718L196.762 39.2309L187.662 34.363L178.56 39.2309L180.378 29.0718L172.937 21.9203L183.161 20.5079L187.662 11.2212Z" fill="white"/>
<path d="M157.207 11.2212L161.708 20.5079L171.932 21.9203L164.491 29.0718L166.307 39.2309L157.207 34.363L148.106 39.2309L149.923 29.0718L142.482 21.9203L152.706 20.5079L157.207 11.2212Z" fill="white"/>
<path d="M125.702 11.2212L130.203 20.5079L140.427 21.9203L132.986 29.0718L134.802 39.2309L125.702 34.363L116.601 39.2309L118.418 29.0718L110.977 21.9203L121.201 20.5079L125.702 11.2212Z" fill="white"/>
<path d="M94.1973 11.2212L98.6983 20.5079L108.923 21.9203L101.481 29.0718L103.298 39.2309L94.1973 34.363L85.096 39.2309L86.9133 29.0718L79.4722 21.9203L89.6963 20.5079L94.1973 11.2212Z" fill="white"/>
<path d="M62.6925 11.2212L67.1935 20.5079L77.4176 21.9203L69.9765 29.0718L71.7926 39.2309L62.6925 34.363L53.5911 39.2309L55.4084 29.0718L47.9673 21.9203L58.1915 20.5079L62.6925 11.2212Z" fill="white"/>
</svg>
